<?xml version="1.0" encoding="utf-8"?>
<!DOCTYPE svg PUBLIC "-//W3C//DTD SVG 1.0//EN" "http://www.w3.org/TR/2001/REC-SVG-20010904/DTD/svg10.dtd">
<svg version="1.0" xmlns="http://www.w3.org/2000/svg" width="4096px" height="4096px" viewBox="0 0 4096 4096" preserveAspectRatio="xMidYMid meet">
 <g fill="#ffffff">
  <path d="M1537 3085 c-47.40 -8 -73.80 -23.40 -116 -67.20 -21.40 -22.40 -32.20 -39.80 -40.80 -65.80 l-4.20 -13 -36.40 0 c-43.40 0 -58 -3 -91.40 -19.20 -25.40 -12.20 -39 -22.80 -68 -52.80 -24.80 -25.80 -32 -38.20 -44.20 -76 -6.20 -18.40 -6.60 -22.60 -7.60 -52.60 -0.80 -31 2.40 -65.60 7.60 -79.60 1.40 -3.40 0 -4.80 -8.60 -9.80 -40 -22 -88.20 -74 -101.80 -109.80 -7.20 -18.60 -13.60 -54.80 -13.60 -76.20 0 -19 0.40 -21.20 9.80 -46 5.20 -14.20 12.40 -32 15.80 -39.20 9 -19.20 33.20 -50.60 52.20 -67.60 14.60 -13.20 16.20 -15.40 15.20 -20.20 -1 -4.60 0 -6.20 7.40 -11 4.80 -3.20 8.80 -6 9.20 -6.20 0.40 -0.20 -1.20 -9.40 -3.60 -20.40 -2.80 -14 -4 -27.80 -4 -46 0 -24.40 0.40 -27 6.80 -44.60 22.40 -61.60 37.40 -86.40 72 -119.20 l17.20 -16.20 0 -10.20 c0 -6.20 1.80 -15 4.60 -21.80 6.80 -16.40 8 -31.80 4.40 -55.40 -2.60 -17.20 -4.60 -23.40 -15 -44 -14.20 -28.80 -31.40 -53.40 -41.60 -59.80 -13.40 -8.40 -21.60 -10 -34.20 -7 -6.60 1.60 -21.80 2.80 -37.20 2.80 -30 0 -44.40 -3.80 -64.40 -16.80 -13.60 -8.80 -31.40 -27.60 -37 -39.20 l-4 -8 -28.60 0.60 c-32.80 0.80 -42.80 -1.20 -65.80 -13.20 -21.20 -11.20 -56.80 -48.20 -66.40 -69.40 -12.60 -27.40 -14.20 -53.80 -4.80 -79.20 3.20 -9 7 -17.60 8.20 -19 1.20 -1.60 1.80 -2.80 1 -2.80 -2.60 0 13.40 -23.20 22.60 -32.80 5 -5.40 18.20 -15.60 29.20 -22.80 57.80 -37.80 101.60 -83.80 122.60 -128.60 21 -44.40 52 -68.60 95 -74 9 -1.20 19.20 -3.60 22.60 -5.20 5.40 -2.60 6.60 -4.40 7.60 -12.40 0.60 -5.20 2.40 -11.20 4 -13.20 2.60 -3.80 4.80 -17.40 9.20 -57 1.20 -10.40 3 -24.80 4 -32 1.20 -7.20 3.80 -29.60 6 -50 7.60 -69.80 9.60 -81 20.40 -111 15 -42.20 31.40 -66 59.40 -86.80 28.20 -21 54 -29 93.20 -28.80 13.20 0 29 1 35 2.40 28.60 6.40 57.20 18 75 30.20 l8 5.60 8 -7 c16.80 -14.60 57.20 -30.20 87 -33.80 25.80 -3 79.80 7 103.80 19 23.40 11.80 47.40 29.80 66.80 50.20 16 16.60 20.80 23.20 28.20 38.60 19.60 40.60 20.20 80.40 2.20 130.40 -11.60 32 -8.80 56.20 10 87 17.80 29 39.40 46.60 66 53.80 4.60 1.20 48.40 7.20 97.80 13.20 49.20 6 93.80 12 98.80 13.40 24.20 5.80 47.80 21 62.20 40 7 9.40 40 75.60 110.60 222.60 24 49.80 29.60 57.60 40.20 56.60 4.60 -0.40 6.60 -1.80 7 -4.60 0.40 -2.20 2 -6.60 3.60 -10 1.60 -3.40 6.60 -36.60 11.80 -78 8.20 -66.40 9.40 -73.40 16 -90.80 3.80 -10.40 8.20 -20.20 9.60 -21.80 1.20 -1.60 2 -3.40 1.60 -3.80 -0.20 -0.40 2.60 -6 6.40 -12.20 16.20 -26.20 46.20 -46.40 75.40 -51 12 -2 14 -2.80 14 -6.40 0 -2.20 1.80 -9 4.20 -15 5.20 -14.20 7 -36.80 4 -49.20 -3.40 -13.40 -16.20 -40.80 -19.20 -40.80 -7 0 -36.20 -17.40 -47 -27.80 -11 -10.80 -28.60 -36 -37.80 -54 -6 -11.80 -12.20 -36.60 -12.20 -49.40 0 -11.80 8.20 -36 19.20 -56.60 6.20 -12 6.60 -13.20 3.80 -17.60 -3 -4.40 -2.60 -5 10.20 -17.60 l13.20 -13 -9.40 -10.40 c-24.80 -27.60 -33.40 -67.40 -21.80 -100 3 -8 6.20 -16.40 7.40 -18.60 1.20 -2.20 2.20 -4.60 2.40 -5.20 0.20 -5.20 19.40 -30.20 35 -46 20.60 -20.80 37.60 -31 60.20 -35.80 16 -3.60 46 -1.60 60.60 3.60 19 7 49.80 27.60 82.40 55.40 11.20 9.60 11.20 9.60 16.60 6.20 19.20 -12.60 40.80 -19.20 63.20 -19.20 45.20 0 80.20 23.20 105.20 70 13.40 25.20 15 29 18.60 46.60 3.40 16 7.40 22.80 14.80 25.60 7.80 3 15.80 0.80 36.80 -10.20 37.80 -19.80 62.40 -26 103.60 -26 34 0 54.80 4.40 86.60 18.80 43.80 19.40 90 68.20 107.40 113.40 13 33.60 15 45.40 15 86.80 0 21 -0.60 42.20 -1.60 47.40 -1.80 11.60 -5 10.60 43.20 13.60 19.80 1.20 40.80 3.60 46.80 5.20 40.20 10.40 74.80 45.60 85.60 86.80 3 11.20 3.20 18.80 2.20 53 -0.80 22 -1.60 42.20 -2 45 -0.40 2.80 -1.20 14 -2 25 -3.20 49.40 -6.80 93.80 -8.40 102.80 -0.60 3.80 -5.20 18 -10.20 31.60 -8.40 23.20 -9.80 25.40 -20.20 34.60 -13.20 11.80 -33.40 22.80 -49.60 27 -16.80 4.40 -57.20 3.80 -142.80 -2 -40.20 -2.60 -76.80 -5.40 -81.40 -5.80 -9.60 -1.20 -27 2.80 -42.60 10 -30.80 14 -71.20 48.20 -79.20 67 -3.80 8.60 -8.80 18.80 -15.40 30.80 -2.20 4.20 -8 45 -19.40 140 -8.80 73.80 -21.60 177.20 -28 230 -31.80 256.60 -35.80 289.40 -34.60 292.20 2.60 6.80 13.60 2.20 34 -14.60 12.60 -10 29.80 -18.60 45.60 -22.40 6.40 -1.60 24 -2.40 49 -2.20 34.80 0.20 40.20 -0.20 50 -3.80 6 -2.20 13 -4 15.20 -4.20 2.40 0 11.20 -2.20 19.80 -5 31.60 -10.40 61.40 -8.60 89.20 5.40 26.80 13.40 42.40 31 69.60 78.60 17.20 30.20 22.40 55.80 17.80 88.40 -2.20 14.20 -17 54.60 -22.60 60.60 -2.40 2.80 -5 8.60 -5.60 13 -0.80 4.40 -3.80 11.60 -7 16 -3 4.40 -7.60 15.20 -10.20 24 -5.40 18.40 -27.80 81.40 -34.20 95.60 -10.40 23.20 -45.20 61 -78.80 85.40 -29 20.80 -71.40 41.40 -106.20 51.40 -33.40 9.60 -71.80 8.20 -96.20 -3.20 l-11.60 -5.40 -12.20 17 c-22.20 31.40 -70 74.60 -109 98.80 -19.60 12 -58.40 30.40 -70.40 33.20 -11.80 2.80 -53.60 2.80 -65.60 0 -12.40 -2.80 -31.20 -12.20 -42.60 -21 -14.20 -11 -43 -44.40 -49.40 -57 -8 -15.40 -12 -32.80 -12 -50.40 0 -12.20 1.20 -18.40 6.80 -32.80 6.20 -16.40 14.60 -32.60 23.40 -45 4.60 -6.40 4.80 -7.60 0.80 -7.60 -6.40 0 -2.40 -6.40 11.20 -17.20 7.80 -6.20 14.60 -12.60 15.20 -14.20 0.60 -1.60 -0.60 -4.60 -2.60 -6.60 -3.20 -3 -15.80 -5.20 -70.80 -12 -36.80 -4.40 -85.40 -10.40 -108 -13.20 -22.60 -2.80 -46.80 -6.40 -53.80 -8 -25 -5.60 -51 -23 -64.80 -43.20 -4 -5.80 -33.40 -64.20 -65.40 -129.60 -32 -65.40 -60.20 -121.20 -62.80 -123.80 -2.60 -2.60 -7.20 -4.60 -10.20 -4.60 -5.40 0 -13.60 6.20 -17.60 13.40 -1.20 2.20 -2.80 9.20 -3.60 15.80 -1.20 10.40 -3 13.80 -8.20 15.60 -0.80 0.40 -4.80 27.20 -8.60 59.60 -6.80 55.80 -7.80 60.60 -16.60 86.80 l-9.40 27.80 -12 10 c-30.80 25.80 -60 30.20 -138.40 21 l-38.40 -4.40 -5.40 4.80 c-8.20 7.80 -9 11.80 -3.60 22.40 5.60 11 6.40 18 1.80 16.40 -4.60 -1.80 -3.80 1 7.20 24.40 18.20 38.60 31.80 85.60 31.80 109.40 0 12.80 -5 51.20 -8.20 64.80 -2.60 9.60 -18.40 54.60 -24.80 69.60 -5.20 12.20 -42.60 47.80 -62.60 59.80 -21.40 12.60 -46.60 22 -70.20 26 -22.60 3.80 -62.60 3.80 -85.20 0.20z m69 -136.60 c17.40 -6.80 37.40 -26.40 46.20 -45.20 8 -17.20 9.80 -37.60 4.80 -55.60 -4.40 -15.80 -20.20 -50.80 -34.20 -75.60 -5.80 -10.40 -15 -27.40 -20.20 -37.80 -5.20 -10.40 -10.60 -19.20 -11.80 -19.60 -1.40 -0.40 -3.20 1.80 -4.40 4.80 -1 3.20 -6.20 10.60 -11.60 16.60 -13.20 14.80 -22.80 27.40 -22.80 29.80 0 1 -2 3.60 -4.60 5.60 -5 3.80 -33.40 44 -33.40 47 0 1 -1.40 3.20 -3 4.80 -1.60 1.80 -3.60 5.40 -4.40 8.40 -0.60 3 -1.80 5.80 -2.40 6.40 -2 1.60 -8.20 28.60 -8.20 35.40 0 3.40 1.60 11.60 3.60 18 11.80 38 50.80 67.20 84.40 63.20 4.80 -0.60 14.80 -3.40 22 -6.20z m964 -68.20 c20 -13.20 54 -45.40 67.80 -64 12.80 -17.20 29.80 -49.60 42 -79.80 9.60 -23.40 9.60 -24 5.40 -25.20 -7 -1.80 -9.20 -1.40 -9.20 2 0 5.40 -10 32.80 -19.20 52.60 -24.60 52.80 -64.20 93 -118.40 120 -16.40 8.20 -17 9 -11.80 15.60 2.20 3 19.20 -5.20 43.40 -21.20z m-1217.60 -76.40 c33.80 -7.20 57.60 -30.40 70.20 -67.80 7.60 -22.80 29.20 -126.80 26.80 -129.20 -0.40 -0.40 -5.20 0.60 -10.60 2.20 -5.40 1.60 -23.80 6.20 -40.80 10.20 -45.20 10.60 -84.60 23.60 -92.80 30.80 -3.60 3.40 -7.40 6 -8.20 6 -4.20 0 -19 15.40 -23.80 25 -3.20 6 -6.40 11 -7.40 11 -1 0 -1.80 2.20 -1.80 5 0 2.80 -0.80 5 -1.80 5 -1 0 -2.80 6.20 -4.20 13.80 -2.80 17 -1.40 24.40 9.80 48 7.20 15.20 31.40 34 51.80 40.20 8 2.40 20.80 2.40 32.80 -0.20z m1480 -41.80 c54.20 -20.80 89 -50 112.60 -94.60 14.40 -27.20 21.60 -48.60 28.80 -87 l3.60 -18.40 -6.40 -4 c-6 -3.80 -10 -4 -57.80 -4 l-51.20 0 0 -28 0 -28 -8 0 -8 0 0 28 0 28 -44.20 0 -44.20 0 10.40 7 10.40 7 88.80 0 88.80 0 0 11.20 c0 20.60 -11.20 61.40 -23.40 85.60 -15.40 30.40 -41.60 55.60 -75.60 72.60 -13 6.60 -40.80 16.60 -45.80 16.60 -1.80 0 -3.20 0.40 -3.20 1 0 1 8.40 13 9 13 0 0 7 -2.60 15.40 -6z m-247.60 -106.40 c4.40 -31.80 137.40 -1118 136.80 -1118.40 -0.60 -0.60 -340.40 -42.80 -340.80 -42.40 -0.20 0.20 -10.40 82.20 -22.60 182.20 -21.60 177.60 -22.20 185 -30.20 304.40 -4.40 67.40 -8 125.20 -8 128.60 0 6 -0.40 6.20 -7.20 5.60 l-7.40 -0.60 -161.60 -333 c-89 -183 -162.80 -333.80 -163.80 -334.80 -1.60 -1.60 -332.20 -43.60 -333.40 -42.40 -1 1 -139 1125.40 -138.40 1126.20 1 1 340 41.40 340.80 40.60 0.20 -0.40 10.60 -82 22.80 -181.60 21.60 -177.40 22.20 -183.40 30.20 -303.40 4.40 -67.40 8 -124.80 8 -127.60 0 -4.80 0.60 -5.20 7.40 -4.60 l7.20 0.60 162.20 333 c89 183.20 162.20 333.40 162.60 334 0.80 0.80 319.40 41.20 329.80 41.80 3.60 0.20 4.60 -1.20 5.60 -8.20z m-1337.40 -118.60 c10.60 -3.20 29.80 -12 43.60 -20.20 4.40 -2.60 11.20 -6.40 15 -8.80 11.40 -6.60 14.60 -8.80 22.20 -14.40 4 -3.20 8.20 -5.60 9 -5.60 1 0 5.20 -3.20 9.60 -7 4.20 -3.80 8.80 -7 10.40 -7 1.40 0 3.40 -1.20 4.20 -2.80 0.80 -1.40 6.40 -5.60 12.20 -9.20 5.60 -3.40 10.40 -7 10.40 -8 0 -1.80 -67 -42.60 -87 -52.80 -3.20 -1.60 -8.20 -4.40 -11 -6 -10.60 -6.20 -32.60 -15.40 -42.40 -17.40 -5.80 -1.20 -16 -1.80 -22.80 -1.20 -10.80 0.80 -16 2.60 -28.80 9.60 -1.60 1 -6 3.20 -9.60 5 -7.80 4 -28.40 26.40 -28.40 31 0 1.80 -1.40 4.40 -3 5.80 -1.40 1.20 -3.40 6.40 -4.20 11.20 -0.60 4.80 -2 9.40 -3 10 -3.20 1.80 -2 16.40 2.40 29 6.40 19.20 17 33.40 32.80 44.40 23.40 16 46.60 20.80 68.40 14.40z m1711.40 -20.40 c-9.20 -16.20 -13.80 -22.60 -15.40 -22.60 -1 0 0 3 2.20 6.60 2.20 3.40 6.40 10.60 9.40 16 3 5.20 6.20 9.40 7.40 9.40 1 0 -0.60 -4.20 -3.60 -9.40z m45.20 -1.60 c0 -1.80 -16.40 -27.80 -19.60 -31 -4 -4.20 -2.60 -1.20 7.60 16.40 7.80 13.40 12 18.60 12 14.60z m-1644.20 -214 c1.20 -0.60 -4 -4.40 -11.40 -8 -9.20 -4.60 -17.80 -11.20 -26 -19.80 -20.60 -21.40 -30.40 -47.60 -30.40 -81.20 0 -31.80 8.20 -53.60 28.40 -75.20 l12 -12.80 -6.60 1.20 c-40.40 7 -72 36.40 -85 78.80 -11 36 14.20 86.40 53.80 107.20 19.60 10.40 29.60 12.80 47.80 12 8.40 -0.40 16.40 -1.40 17.40 -2.20z m-250 -599.20 c4.60 -1.60 6 -3.20 5.20 -5.40 -5.60 -15 -43 -147.80 -43 -153.20 0 -5.60 2.20 -9.80 10.20 -19.60 12.40 -15.40 45.80 -65.20 45.80 -68.40 0 -1.40 -3 -3.80 -6.60 -5.60 l-6.80 -3.20 -5.20 10.80 c-17.40 35.20 -47.40 75 -81.20 107.20 -21 20.20 -56.20 48.20 -76 60.40 l-8.60 5.60 4.60 4.80 c2.40 2.60 5.20 4.80 6 4.80 3 0 41.20 -29.80 66.20 -51.80 20.20 -17.80 26.60 -22.20 31.40 -22.20 3.20 0 6.40 0.80 7 1.60 1.60 2.80 34.80 116.40 38 131 1.40 6 3.40 6.40 13 3.20z m2030 -166.60 c1.60 -1.80 4.40 -31.60 7.80 -82.40 5 -71.40 5.20 -79.80 2.40 -82.80 -2.60 -3 -14 -4.20 -82.80 -8.80 -68.40 -4.60 -80.20 -5 -82.60 -2.60 -2.20 2.20 -4.20 22.80 -8.40 82.60 -3 43.80 -5.20 81 -4.60 82.40 1.20 3.60 3.60 4 77.40 9.20 84.40 5.80 87.80 6 90.80 2.40z m-1722.40 -49.80 c9.20 -8.80 11.60 -17 7.60 -26.80 -4.40 -10.40 -11.60 -17.60 -23.20 -22.60 -11.80 -5 -21.20 -4 -30 3.40 -15.40 13 -14.40 26.40 2.80 41.60 16.80 14.60 30.60 16.20 42.80 4.40z m-127.60 -49.20 c13.20 -6.80 16 -14.40 10.40 -27.40 -5 -11.20 -19 -19.80 -29.20 -18 -15 2.80 -24.60 18.40 -18.60 30.60 3.40 7.20 18.60 18.60 24.80 18.60 2.80 0 8.40 -1.80 12.60 -3.80z m169.40 -27.20 c4.80 -7.60 12.40 -21.20 16.80 -30 11.40 -22.40 16.60 -31.60 19.20 -34 1.20 -1 4 -6.40 5.80 -11.60 2 -5.40 6.20 -13.20 9.40 -17.60 3 -4.20 7 -11.40 8.80 -15.80 1.80 -4.40 4 -8 5 -8 1 0 1.80 -1.40 1.80 -3 0 -1.60 2.80 -7.40 6 -12.60 3.40 -5.40 6 -10.80 6 -11.80 0 -1.20 2.80 -5.80 6 -10.20 3.40 -4.60 6 -9.20 6 -10.40 0 -1.20 2.40 -5.80 5.60 -10.40 7.40 -11.20 7 -10.60 15.40 -27.60 8.20 -16.80 11.80 -23.40 18.80 -35 2.80 -4.40 6.20 -11.20 7.60 -15 1.40 -3.80 3.40 -7.20 4.60 -7.60 1 -0.40 2 -2 2 -3.60 0 -1.60 3.20 -7.80 7 -13.80 3.80 -6 7.40 -13.20 8.20 -16 0.60 -2.80 2 -5 2.80 -5 2.60 0 4.20 -13.20 2.20 -18.60 -5.20 -13.60 -29.80 -32.60 -49.80 -38.60 -28 -8.20 -46.60 -2.20 -57.20 18.60 -1.80 3.60 -3.20 8.40 -3.20 10.60 0 2.40 -1.20 6.80 -2.80 9.60 -1.40 3 -4 8.60 -5.60 12.40 -4.80 11.40 -10 22.80 -11.60 26 -0.80 1.80 -2.20 7 -3 11.80 -0.80 4.60 -2.60 9 -4.20 9.60 -1.60 0.60 -2.80 3.20 -2.80 5.60 0 2.60 -1.20 7.20 -2.80 10.40 -1.60 3 -3.80 8.40 -5.20 11.60 -1.40 3.40 -3.60 8.60 -5.20 11.60 -1.60 3.20 -2.80 7.40 -2.80 9.60 0 2 -0.80 3.80 -2 3.80 -1 0 -2 1.80 -2 4.20 0 2.20 -1.40 7 -3.20 10.40 -6.20 11.80 -6.80 13.40 -6.80 17.20 0 2.20 -1.20 5.20 -2.80 6.60 -1.40 1.60 -3.40 6.60 -4.20 11 -0.60 4.60 -2.60 9.80 -4 12 -1.60 2 -3 5.20 -3 7 0 1.80 -1.20 4.60 -2.60 6 -1.60 1.40 -3.40 6.20 -4.20 10.60 -0.80 4.40 -2.60 9.80 -4 12 -1.40 2.20 -4 9.20 -6 15.40 -2 6.40 -4.40 12 -5.20 12.60 -1 0.60 -2.20 4.60 -3 9 -0.80 4.40 -3 10 -5.20 12.80 -2.20 2.80 -4.60 9.20 -5.60 14.60 -1 5.20 -2.80 9.80 -4 10.20 -1.20 0.40 -2.20 2.80 -2.20 5.40 0 2.60 -0.80 5.40 -2 6 -7.40 4.60 5 21.80 22.20 30.60 10.20 5.20 14.80 6.40 22.60 6 l10 -0.60 8.40 -14z m1430.60 -34 c5 -6.40 10.60 -13.80 12.20 -16.20 1.60 -2.40 7.60 -11 13.40 -19.20 49.20 -71.20 70.60 -138 57.80 -180.60 -11.40 -37.40 -44.40 -67.20 -81 -73.20 -23.20 -3.60 -53.20 7.60 -72.20 27 -10.80 11 -20 23.60 -20 27.20 0 3.60 -14.60 1.20 -32 -5 -12.80 -4.60 -17.20 -5.40 -30.40 -4.60 -39.20 2.20 -74.60 34.40 -84.60 76.80 -4 17.20 -0.80 37 9.60 58.80 6.80 13.80 11.60 20.40 26.40 35.20 9.80 10 25 22.80 33.40 28.40 19.60 13.20 55.60 31.80 77.60 40.20 9.40 3.60 20.20 7.80 24 9.20 6 2.40 33 11 42 13.60 5.20 1.40 14 -5.20 23.80 -17.60z m-1585.60 -1.40 c6.80 -2 8.20 -3.40 10 -10.40 4.80 -18 15.60 -62.60 16.80 -70.20 0.80 -4.40 4 -18.40 7.40 -31 3.20 -12.60 7.60 -31 9.60 -41 2 -9.80 5.40 -25.20 7.60 -34 2.20 -8.80 6.40 -27.60 9.40 -42 3 -14.20 7.60 -34 10.20 -43.80 4.20 -16.60 4.40 -18.20 1.40 -24 -5.60 -11 -16 -17.60 -36.40 -23.40 -7.20 -2.20 -15.20 -3.80 -17.60 -3.80 -7.40 0 -19.40 5.80 -23.40 11.40 -4.20 5.60 -11.20 43.60 -11.20 60.60 0 5 -1 12.20 -2 16.20 -1.20 4 -3 15.80 -4 26 -1.20 10.40 -3.40 28.80 -5 40.80 -10.80 82.60 -17.40 135.20 -17.60 143.40 -0.40 9.80 7.60 18 22.60 23.60 13.20 4.60 12.60 4.60 22.20 1.60z m1128.80 -235.80 c56.20 -18.80 106.80 -51.80 143.20 -93 14.60 -16.60 33.80 -43.40 33.80 -47.40 0 -3 -3.60 -8.60 -4.60 -7.40 -0.40 0.60 -6.40 9.60 -13.60 20 -15.20 22.60 -48 56 -71.40 72.60 -30.40 21.80 -79.60 42.80 -114.80 49.40 l-13.60 2.40 4.20 6 c5.20 7 8.40 6.80 36.80 -2.60z m35.80 -147.60 c3.20 -3.60 2.80 -4.40 -14.20 -18.60 -31.80 -27 -47 -37.60 -50 -35.20 -1.40 1.20 -2.60 2.60 -2.60 3.40 0 0.80 7.40 7.40 16.60 14.60 9 7.20 23.20 19 31.40 26.40 8.20 7.20 15 13.20 15.20 13.20 0 0 1.80 -1.60 3.60 -3.80z"/>
 </g>
 <g fill="#f5b366">
  <path d="M2510 3028 c0 -3.60 1.40 -4 15 -4 13.60 0 15 0.40 15 4 0 3.60 -1.40 4 -15 4 -13.60 0 -15 -0.40 -15 -4z"/>
  <path d="M1560.60 2960 c-30.20 -6.40 -57.20 -31.80 -67 -63 -3.80 -12 -4.20 -36.40 -0.80 -49 0.80 -2.80 1.80 -7.20 2.40 -10 0.60 -2.60 1.80 -5.40 2.60 -6 0.80 -0.60 2.20 -3.40 2.80 -6.40 0.80 -3 2.80 -6.80 4.60 -8.40 1.60 -1.80 2.60 -3.20 1.80 -3.20 -2.20 0 29.40 -44.80 34.40 -48.60 2.40 -2 4.40 -4.20 4 -5 -0.40 -1.80 7.80 -12.60 23 -30 6.20 -7.20 11 -13.60 10.60 -14.40 -1.40 -2.40 12 -16 14.20 -14.40 1.40 0.80 8.40 13.20 15.80 27.40 7.40 14.40 17 32 21.20 39.20 10.40 18 28.60 58.20 32.60 72.60 2.40 8.20 3.40 17.80 3 32.40 -0.40 18.60 -1.20 22 -7 34.80 -9.40 20.40 -28.80 39.20 -47.80 46.80 -15.40 6.20 -36 8.20 -50.40 5.20z"/>
  <path d="M2384 2902.80 c0 -2 10.40 -30.80 11.20 -30.80 0.40 0 0.80 7.20 0.80 16 l0 16 -6 0 c-3.20 0 -6 -0.60 -6 -1.20z"/>
  <path d="M1313.60 2810 c-21 -6.20 -44.60 -25 -52.40 -41.20 -2 -4.20 -4.40 -9.20 -5.20 -11 -5 -9.80 -6.80 -28 -4.40 -44.40 1.40 -9 3.20 -16.60 4.40 -17 1 -0.40 2 -3 2 -5.60 0 -2.60 0.80 -4.80 1.80 -4.80 1 0 4.20 -5 7.40 -11 4.80 -9.60 19.60 -25 23.80 -25 0.80 0 4.40 -2.60 8.20 -5.80 8 -7.20 43.80 -19.20 86.60 -29.40 16 -3.80 37.60 -9.20 47.80 -12 10.20 -2.80 20 -4.60 21.80 -4 3.60 1.40 3.60 1.40 -5.40 48 -3.20 17.40 -6.40 34.40 -7 38 -0.80 6.40 -2 12.20 -4.40 22.20 -0.80 3.40 -1.40 6.40 -1.60 7 -1 4.60 -7.80 26.60 -10 32.60 -1.60 4 -2.40 7.40 -1.60 7.40 0.60 0 -0.40 1.80 -2.20 3.80 -2 2.20 -3.80 5.20 -4 7 -0.20 1.80 -6 9.40 -12.80 17 -13.40 15.20 -28.40 23.80 -48 28 -12 2.60 -36.80 2.60 -44.80 0.20z"/>
  <path d="M2802.40 2763.60 l-10.80 -12.40 13.80 -3.20 c36.20 -8.60 67.60 -25.60 92 -49.60 17.60 -17.20 28.60 -34.40 38.60 -60.60 4.80 -12.60 14 -51.20 14 -58.60 l0 -5.20 -88.80 0 -88.80 0 -9.80 -6.60 c-5.60 -3.80 -14 -7.80 -19.20 -9.20 -5.80 -1.80 -9.40 -4 -10 -6.40 -1 -3.60 1 -3.80 53 -3.80 l54 0 -0.80 -28 -0.60 -28 15.20 0 15.20 0 -1 28 -1 28.20 51.20 -0.20 c50 -0.40 51.40 -0.20 58.80 4.20 4.20 2.40 8 4.80 8.20 5 0.80 0.40 -1.20 10.20 -10.60 50.40 -16.60 72.40 -51.40 119.40 -110.80 149.40 -12.20 6 -45.40 19 -48.80 19 -1.40 0 -7.20 -5.60 -13 -12.40z"/>
  <path d="M2260 2747.80 c0 -3.40 1 -4 7.40 -3.40 5.40 0.40 7.80 1.60 8.20 4.20 0.60 2.80 -0.80 3.40 -7.40 3.40 -7 0 -8.20 -0.60 -8.20 -4.20z"/>
  <path d="M1122 2735.80 c0 -17.20 3.40 -29.80 8.20 -29.80 3.40 0 3.80 1.80 3.80 21 l0 21 -6 0 -6 0 0 -12.20z"/>
  <path d="M1836 2694 c0 -3.60 1.40 -4 16 -4 14.60 0 16 0.40 16 4 0 3.60 -1.40 4 -16 4 -14.60 0 -16 -0.40 -16 -4z"/>
  <path d="M2582 2670.40 c-17.80 -1.40 -338 -41.60 -338.60 -42.40 -0.40 -0.60 -62.20 -127.40 -137.40 -282 -186.40 -383 -188.60 -387.60 -189.40 -383 -0.20 2.20 -4.20 59.40 -8.60 127 -7.80 121.60 -8.20 125 -30.40 306.60 l-22.60 183.60 -6 -1 c-3.20 -0.60 -83 -10.20 -177 -21.40 -94 -11.20 -171.20 -20.40 -171.40 -20.80 -0.60 -0.40 139.20 -1137.40 140 -1139 0.80 -1.80 343.20 41 345.40 43.20 1 1 74.60 151.40 163.20 333.80 88.60 182.60 162 332.80 163 333.80 1 1.20 1.80 -0.60 1.80 -4.40 0 -3.60 3.60 -61.60 8 -129 8 -119.40 8.60 -126.80 30.20 -304.40 12.20 -100 22.60 -182.40 23 -182.80 1 -1.20 351.40 42.20 353.20 43.60 1 1 -136.80 1129.40 -138.80 1137.20 -0.40 1.20 -3.80 1.80 -7.60 1.40z"/>
  <path d="M1199 2542 c-37 -11.80 -63 -46.20 -63 -83.60 0 -7.60 0.60 -14.40 1.40 -15.20 0.80 -0.80 1.60 -2.60 1.60 -3.80 0.40 -4.60 3.60 -14.40 5.60 -17.20 1.20 -1.40 2.40 -4 2.60 -5.40 0.60 -4 17.80 -23.80 24.40 -28.20 9.80 -6.60 13.40 -8.60 16.40 -9.80 1.60 -0.60 5.80 -2.60 9 -4.40 7.60 -4.20 38.60 -5.60 52.60 -2.60 9.80 2 31.80 11.20 42.40 17.40 2.80 1.60 7.80 4.40 11 6 10.80 5.60 24.40 13.40 59 34.40 24.40 14.80 34 21.60 34 24.40 0 2.40 -4.80 6.60 -13.40 12.20 -7.60 4.60 -14.40 9.60 -15.20 11 -0.80 1.60 -2.80 2.80 -4.20 2.80 -1.60 0 -6.20 3.20 -10.40 7 -4.40 3.80 -8.60 7 -9.60 7 -0.80 0 -5 2.40 -9 5.60 -7.60 5.60 -10.80 7.80 -22.20 14.40 -3.80 2.40 -10.60 6.20 -15 8.80 -13.80 8.20 -33 17 -43.60 20.20 -14 4.20 -39.60 3.60 -54.40 -1z"/>
  <path d="M2948.80 2522.60 c-4 -7.60 -10 -17.40 -13.40 -22.20 -3.20 -4.80 -5.20 -9.20 -4.60 -9.80 0.60 -0.60 4.60 -2.80 8.80 -4.60 9 -4 6 -6.80 23.80 22.40 5.80 9.60 10.60 18.40 10.60 19.60 0 1.80 -12.40 8 -16 8 -1 0 -5 -6 -9.20 -13.40z"/>
  <path d="M2991.40 2515.40 c-3.20 -5.60 -9.40 -16 -13.80 -23 -4.60 -6.80 -7.80 -12.80 -7.40 -13 5.20 -3.40 16.80 -7.20 17.80 -6 3.60 3.60 26 41.60 26 43.80 0 1.80 -13.60 9 -16.60 8.80 -0.20 0 -3 -4.80 -6 -10.60z"/>
  <path d="M1108 2207.80 c0 -7.80 13.60 -52.80 15.40 -51 0.40 0.40 0 6 -1.20 12.40 -1.20 6.40 -2.20 19.40 -2.20 29.20 l0 17.60 -6 0 c-5.60 0 -6 -0.40 -6 -8.20z"/>
  <path d="M936 1766 c0 -3.60 1.40 -4 15 -4 13.60 0 15 0.40 15 4 0 3.60 -1.40 4 -15 4 -13.60 0 -15 -0.40 -15 -4z"/>
  <path d="M3112 1660 c0 -3.80 1.40 -4 21 -4 19.60 0 21 0.20 21 4 0 3.80 -1.40 4 -21 4 -19.60 0 -21 -0.20 -21 -4z"/>
  <path d="M3084 1658 c0 -3.20 1.40 -4 6.60 -4 9.40 0 15.40 2 15.40 5.20 0 2 -3 2.80 -11 2.80 -9.60 0 -11 -0.40 -11 -4z"/>
  <path d="M3054 1655.80 c0 -3.60 1 -4 8.40 -3.40 6.20 0.40 8.80 1.60 9.20 4.20 0.60 2.80 -0.80 3.40 -8.40 3.40 -8 0 -9.20 -0.60 -9.20 -4.20z"/>
  <path d="M3024 1654 c0 -3.40 1.40 -4 9 -4 7.60 0 9 0.60 9 4 0 3.40 -1.40 4 -9 4 -7.60 0 -9 -0.60 -9 -4z"/>
  <path d="M2996 1651.80 c0 -3.60 1 -4 8.40 -3.40 6.20 0.40 8.80 1.60 9.20 4.20 0.60 2.80 -0.80 3.40 -8.40 3.40 -8 0 -9.20 -0.60 -9.20 -4.20z"/>
  <path d="M2966 1649.80 c0 -3.60 1 -4 8.40 -3.40 6.20 0.40 8.80 1.60 9.20 4.20 0.60 2.80 -0.80 3.40 -8.40 3.40 -8 0 -9.20 -0.60 -9.20 -4.20z"/>
  <path d="M808 1640.20 c0 -1 3.20 -10.20 7 -20.40 4 -10.40 6.60 -16.60 6.20 -13.80 -0.60 2.80 -1.20 12 -1.20 20.60 l0 15.40 -6 0 c-3.20 0 -6 -0.80 -6 -1.80z"/>
  <path d="M3043 1538.80 c-37.40 -2.80 -70 -5.20 -72.20 -5.80 -2.40 -0.60 -5 -2.40 -5.60 -4.20 -1 -2.60 5 -104.20 9.60 -161.60 1.60 -19.80 -4.80 -18.80 89.60 -12.60 45.40 3 84.20 5.60 86 5.40 2 0 4.80 2 6.60 4.60 2.60 4.20 2.40 13.20 -3 89.20 -3.60 53.60 -6.60 85.60 -8.20 87.40 -3.20 3.80 -19.20 3.40 -102.80 -2.40z"/>
  <path d="M1138 1275 c0 -1.60 -1 -3 -2.20 -3 -1.20 0 -1.80 -3.20 -1.40 -7.40 0.60 -6.60 1.40 -7.60 6.20 -8.20 5 -0.60 5.40 0 5.40 6 0 9.60 -2 15.60 -5.20 15.60 -1.60 0 -2.80 -1.40 -2.80 -3z"/>
  <path d="M1142 1240 c0 -2.20 -0.80 -4 -2 -4 -2.20 0 -2.60 -7.80 -0.80 -12.80 0.60 -1.80 3.40 -3.20 6 -3.20 4.20 0 4.80 1 4.80 7.60 0 10.40 -2 16.40 -5.20 16.40 -1.60 0 -2.80 -1.80 -2.80 -4z"/>
  <path d="M1148 1193 c0 -1.60 -0.80 -3 -2 -3 -1 0 -2 -3.60 -2 -8 0 -7.60 0.40 -8 6 -8 5.40 0 6 0.60 6 6.60 0 9.40 -2 15.40 -5.20 15.40 -1.60 0 -2.80 -1.40 -2.80 -3z"/>
  <path d="M1146 1165.20 c0 -6.60 0.40 -7.20 6.20 -7.20 5.60 0 6 0.40 5.40 6.60 -0.40 5.40 -1.60 6.60 -6 7 -5.20 0.60 -5.60 0.20 -5.60 -6.40z"/>
  <path d="M2388.20 1143.40 c-3.60 -5.60 -6.40 -11.20 -6 -12.40 0.20 -1 8.20 -3.40 17.80 -5.20 37.20 -7.20 83.40 -27 114.40 -49.20 32 -22.80 68 -62.60 85.80 -95.20 l5.40 -9.80 7.40 13.20 7.40 13.20 -7.60 12.20 c-28 46.20 -73 86.80 -125.20 113 -29.80 15 -75.60 30.80 -89 30.80 -2.20 0 -6.20 -4.20 -10.40 -10.60z"/>
  <path d="M2463.20 1004.20 c-2 -3.20 -44.40 -39.40 -59.60 -51 -7.60 -5.60 -13.60 -10.60 -13.60 -11.40 0 -0.80 3.40 -5.20 7.80 -10 l7.80 -8.80 9.60 6.80 c15 10.80 46.40 36 58.40 47.20 l10.60 10 -9.80 9.60 c-6 5.80 -10.40 9 -11.20 7.60z"/>
  <path d="M2267 950.20 c3 -10 13 -34.60 12.20 -30.20 -0.60 2.80 -1.20 11.60 -1.20 19.60 l0 14.40 -6.20 0 c-5 0 -5.80 -0.60 -4.80 -3.80z"/>
 </g>
 <g fill="#ffe387">
  <path d="M1573.60 2960.60 c3.60 -0.40 9 -0.40 12 0 3 0.40 0 0.80 -6.60 0.80 -6.60 0 -9 -0.40 -5.40 -0.80z"/>
  <path d="M1537.60 2951.80 c-4.20 -2.20 -7.60 -4.40 -7.60 -4.80 0 -1 15.80 6.40 17.80 8.20 2.40 2.20 -3.60 0.20 -10.20 -3.40z"/>
  <path d="M1621 2948.20 c9.60 -5.40 20.40 -15.80 30.60 -29.20 2.60 -3.20 3.80 -4.20 2.60 -1.80 -5.60 11.60 -33.80 36.80 -41 36.80 -1.20 0 2.40 -2.60 7.80 -5.80z"/>
  <path d="M1515 2933.60 l-8 -8.60 8.60 8 c4.60 4.20 8.40 8 8.40 8.40 0 1.60 -1.80 0 -9 -7.80z"/>
  <path d="M1496.80 2906.80 c-1.60 -4 -2.60 -7.60 -2.20 -8 0.40 -0.40 2.20 2.80 4 7.20 3.80 10 2.40 10.60 -1.80 0.80z"/>
  <path d="M2515.80 2901.60 c-5.20 -6.20 -7.60 -10.60 -6.20 -11.20 9.20 -3 42.40 -20.60 56.40 -30 32 -21.20 63.80 -57.80 81.60 -93.40 8.20 -16.60 19.40 -46 22.40 -58.40 2.60 -11.40 3.60 -12.20 11.60 -7.60 3 1.60 7.80 3.80 11 5 6.80 2.40 6.60 3.40 -6.80 36.60 -12.20 30 -29.20 62.40 -42 79.60 -13.80 18.60 -47.80 50.80 -67.80 64 -18.20 12 -44.20 25.80 -48.60 25.80 -1.60 0 -6.80 -4.60 -11.60 -10.40z"/>
  <path d="M1490.40 2882 c0 -3.80 0.40 -5.40 1 -3.40 0.40 1.80 0.40 5 0 7 -0.60 1.80 -1 0.20 -1 -3.60z"/>
  <path d="M1490.40 2862 c0 -3.80 0.40 -5.40 1 -3.40 0.40 1.80 0.40 5 0 7 -0.60 1.80 -1 0.20 -1 -3.60z"/>
  <path d="M1500.20 2827 c0 -1 1.20 -4.20 2.80 -7 1.60 -2.80 2.80 -4 2.80 -3 0 1.20 -1.20 4.20 -2.80 7 -1.60 2.80 -2.80 4.20 -2.80 3z"/>
  <path d="M1511.20 2806 c6.80 -10.40 8.20 -10.40 2.40 0 -2.60 4.40 -5.20 8 -6.20 8 -0.80 0 1 -3.60 3.80 -8z"/>
  <path d="M1342.60 2810.60 c1.80 -0.40 5 -0.40 7 0 1.80 0.60 0.20 1 -3.60 1 -3.80 0 -5.40 -0.40 -3.40 -1z"/>
  <path d="M1378.80 2801 c2.20 -1.60 4.80 -3 6 -3 1 0 0.20 1.40 -2 3 -2 1.60 -4.60 2.80 -5.80 2.80 -1 0 -0.20 -1.20 1.80 -2.80z"/>
  <path d="M1287 2796.80 l-6 -5.20 7 4.60 c9 5.80 9 5.80 6.80 5.80 -1 0 -4.40 -2.40 -7.80 -5.20z"/>
  <path d="M1388.20 2797.60 c0.40 -0.40 5.80 -5 11.80 -10.60 l11 -10 -10 10.60 c-5.40 5.60 -10.80 10.40 -11.80 10.40 -1 0 -1.40 -0.20 -1 -0.40z"/>
  <path d="M1522 2790.40 c2.40 -3.60 5 -6.20 5.60 -5.40 0.60 0.60 -1.40 3.60 -4.60 6.60 l-5.60 5.40 4.60 -6.60z"/>
  <path d="M1271.40 2783.60 c-6.60 -8.40 -12 -16.80 -8 -12.60 4.40 4.80 16.80 21 15.80 21 -0.40 0 -4 -3.80 -7.80 -8.40z"/>
  <path d="M1636 2782 c-2.20 -4.40 -3.60 -8 -3 -8 0.40 0 2.80 3.60 5 8 2.20 4.40 3.60 8 3 8 -0.40 0 -2.80 -3.60 -5 -8z"/>
  <path d="M1548 2755 c2.60 -2.80 5.60 -5 6.60 -5 1.20 0 0 2.20 -2.60 5 -2.60 2.80 -5.60 5 -6.60 5 -1.20 0 0 -2.20 2.60 -5z"/>
  <path d="M1558 2742 c2.20 -3.20 5.20 -6.60 6.40 -7.20 1.40 -0.80 -0.20 1.80 -3.20 5.80 -6.80 8.80 -9.20 10 -3.20 1.40z"/>
  <path d="M1250.60 2728 c0 -7.20 0.40 -10 0.80 -6.40 0.40 3.40 0.40 9.40 0 13 -0.40 3.40 -0.80 0.60 -0.80 -6.60z"/>
  <path d="M1594 2705 c-2 -2.40 -3.20 -2.60 -5.80 -0.60 -2.80 2.20 -2.80 2.20 -0.60 -0.80 3 -3.60 7.40 -3 9.20 1.60 1.40 3.60 0.40 3.60 -2.80 -0.20z"/>
  <path d="M1271.60 2666.40 c2.60 -3.40 5.60 -7 6.80 -7.80 1.40 -0.60 0.40 1.60 -2 5 -2.60 3.40 -5.60 7 -6.80 7.80 -1.40 0.60 -0.40 -1.60 2 -5z"/>
  <path d="M1286 2653 c1.40 -1.60 3.40 -3 4.40 -3 1.20 0 1 1.40 -0.40 3 -1.40 1.60 -3.40 3 -4.40 3 -1.20 0 -1 -1.40 0.40 -3z"/>
  <path d="M1299 2644 c1.60 -2.60 13 -8.60 14.20 -7.60 0.40 0.60 -2.80 2.80 -7.40 5.20 -4.40 2.40 -7.40 3.40 -6.80 2.40z"/>
  <path d="M1429 2604 c2.20 -1 5.40 -1.80 7 -1.80 1.80 0 1.60 0.80 -1 1.80 -2.20 1 -5.40 1.80 -7 1.80 -1.80 0 -1.60 -0.80 1 -1.80z"/>
  <path d="M1212.60 2544.60 c1.80 -0.40 5 -0.40 7 0 1.80 0.60 0.20 1 -3.60 1 -3.80 0 -5.40 -0.40 -3.40 -1z"/>
  <path d="M1158.20 2517 c-3.40 -4 -6.20 -7.80 -6.20 -8.40 0 -0.80 0.60 -0.60 1.60 0.60 0.80 1 4 4.80 7.20 8.40 3.40 3.40 5.40 6.40 4.80 6.40 -0.60 0 -4 -3.20 -7.40 -7z"/>
  <path d="M1340.80 2493.60 c6.40 -6 11.40 -7.60 7.20 -2.60 -1.40 1.60 -3.40 3 -4.60 3 -1.20 0 -3.60 1.20 -5.40 2.60 -1.80 1.20 -0.60 0 2.80 -3z"/>
  <path d="M1360.80 2479 c4.40 -3.40 8 -4 6.40 -1.20 -0.60 1 -3.20 2.20 -5.60 2.80 -4.40 1.20 -4.40 1 -0.80 -1.60z"/>
  <path d="M1136.60 2467 c0 -4.40 0.40 -6 0.80 -3.40 0.40 2.40 0.40 6 0 8 -0.60 1.80 -1 -0.20 -0.80 -4.60z"/>
  <path d="M1370.80 2472.40 c0.60 -1 6.20 -4.80 12.20 -8.60 9.40 -5.60 11.20 -7.60 10.40 -11.40 -0.60 -3 -0.20 -4 1 -2.80 4 4 0.40 8.80 -12.20 16.80 -7 4.40 -12.20 7.20 -11.40 6z"/>
  <path d="M1136.60 2451 c0 -4.40 0.40 -6 0.80 -3.40 0.40 2.40 0.40 6 0 8 -0.60 1.80 -1 -0.20 -0.80 -4.60z"/>
  <path d="M1368.60 2435.80 c-5.80 -3.40 -10.60 -6.60 -10.60 -7.20 0 -1 17.80 8.80 21 11.60 3.20 3.20 0.20 1.80 -10.40 -4.40z"/>
  <path d="M1166.40 2393.60 c5.40 -5.40 11 -9.60 12.20 -9.40 1.40 0 0.60 1.20 -1.40 2.40 -2.20 1.40 -7.60 5.60 -12.20 9.40 -6.80 5.60 -6.60 5.20 1.40 -2.40z"/>
  <path d="M1256 2375 c-3.80 -1.40 -5.60 -2.80 -4 -2.80 1.60 0 5.80 1.20 9 2.80 7.80 3.40 4.20 3.60 -5 0z"/>
  <path d="M1217.60 2370.60 c5.80 -0.40 14.80 -0.40 20 0 5.20 0.40 0.40 0.60 -10.60 0.60 -11 0 -15.20 -0.20 -9.40 -0.60z"/>
  <path d="M1311.80 2307.20 c-62.40 -18 -96.60 -86.60 -71.60 -144.20 5.60 -13 20 -32.40 30.20 -40.80 20.20 -16.60 42.40 -24.20 70.40 -24.20 l14.20 0.20 -6 4.20 c-12.80 9.20 -34.40 33 -39.80 43.80 -19.60 40.40 -12.40 88 18.20 120 13.40 14 24.40 21.20 42.20 27 7 2.20 12.60 4.80 12.80 6 0.20 7.60 -51.20 13.60 -70.60 8z"/>
  <path d="M1089.40 1699.60 c-4.60 -20 -35.40 -124.20 -37 -126 -0.80 -0.60 -9.40 6 -19.40 14.80 -21.80 19.60 -53 44.80 -68.80 55.40 l-11.60 8 -11.40 -11.60 -11.20 -11.40 11.40 -6.80 c21.60 -13 58 -41.80 80.60 -63.40 34.60 -33 62.80 -70.40 82 -108.80 3.60 -7 6.80 -13.20 7 -13.40 0.40 -0.40 7 2.60 14.80 6.60 l14 7.40 -4.80 9.60 c-6.60 13 -34.20 54 -47 69.80 l-10.40 12.80 20.40 70.20 c11.40 38.60 22.20 75 24.20 81 2.20 6 3.60 11 3.40 11.20 -0.80 0.40 -31.20 9 -32 9 -0.40 0 -2.40 -6.60 -4.20 -14.40z"/>
  <path d="M1385 1498 c-9.80 -3 -26.60 -19.20 -29 -27.60 -6.60 -24 5.20 -41.60 29.20 -43.80 21.80 -2 40 9.60 46.80 29.60 3.20 9.20 3.20 11.40 0.80 19.60 -1.40 4.80 -5.80 12 -9.40 15.80 -6.20 6 -8.20 6.80 -19.60 7.60 -7 0.40 -15.40 -0.20 -18.80 -1.20z"/>
  <path d="M1262 1442.60 c-11 -7.20 -15.80 -13.40 -18 -22.80 -1.40 -5.40 -1.80 -11.40 -1 -13.40 1 -1.80 1.80 -4.80 2.20 -6.40 1.20 -5.80 12.40 -13.60 23 -15.80 10 -2.20 11.40 -2 21.80 3.20 8.60 4.40 12 7.60 15.60 14.60 5 10.20 5.60 25.40 1 32 -7.60 10.80 -33.80 15.80 -44.60 8.60z"/>
  <path d="M1430 1430 c-22.80 -4 -44.80 -24.20 -43.60 -40 0.20 -3.80 1.40 -7.60 2.40 -8.40 1 -0.60 2.20 -3.40 2.60 -5.80 0.40 -2.60 1.60 -5.20 2.80 -5.80 1 -0.80 2.40 -4 3 -7.20 1.60 -9.40 3 -13.60 6.20 -17.20 1.60 -1.80 3.20 -4.40 3.40 -6 1.60 -7.40 4 -14.80 5.60 -16.80 1.80 -2.40 3.80 -9.40 4 -14.20 0.20 -1.40 1.20 -2.60 2.20 -2.60 1.20 0 1.40 -0.60 0.80 -1.20 -0.60 -0.80 -0.20 -3.20 1 -5.60 1.40 -2.20 2.20 -4.80 2 -5.60 -0.20 -1 0.60 -1.60 1.80 -1.60 1 0 1.40 -0.80 0.80 -2 -0.60 -1 -0.60 -3.20 0.40 -4.40 0.80 -1.40 1.80 -4.40 2 -6.60 0.40 -2 1.60 -4.40 2.60 -5 1.20 -0.80 2.40 -3.20 3 -5.40 0.40 -2.40 2.20 -6.40 3.80 -9.20 1.80 -2.60 2.60 -5.20 2 -6 -0.60 -0.60 -0.40 -2.40 0.40 -3.80 1 -1.40 2 -4.20 2.20 -6.20 0.40 -2 2 -5 3.60 -6.80 1.60 -1.60 2.60 -3.80 1.80 -4.80 -0.60 -1.20 0.40 -4.20 2 -6.80 1.80 -2.80 2.80 -5 2 -5 -0.60 0 0.20 -2.40 2.20 -5.20 1.80 -2.80 3.80 -7.60 4.20 -10.40 0.60 -3 1.80 -5.80 3 -6 1 -0.40 1.40 -1.60 0.80 -2.60 -0.60 -1 0 -3.80 1.40 -6.20 1.40 -2.60 2.20 -5.20 2 -6 -0.20 -1 0.60 -1.60 2 -1.60 1.20 0 1.60 -0.60 1 -1.40 -0.80 -0.60 0 -3.40 1.60 -6 1.80 -2.60 2.60 -4.60 2 -4.60 -0.60 0 0.40 -3 2.40 -6.40 1.80 -3.60 3.80 -8.80 4.20 -11.60 0.40 -2.80 2 -5.80 3.60 -6.60 1.60 -1 2.40 -2.60 1.60 -3.60 -0.60 -1 0 -3.40 1.40 -5 1.20 -1.60 1.80 -3.40 1 -4.20 -0.60 -0.60 0.20 -3.40 1.80 -6 1.80 -2.60 2.60 -4.60 1.80 -4.60 -0.60 0 0.80 -3 3 -6.60 2.20 -3.80 3.60 -7.40 3 -8 -0.80 -0.60 0.60 -3.80 3 -7 2.20 -3.20 3.60 -6.40 2.80 -7.20 -0.60 -0.60 0.40 -2.80 2.20 -5 1.80 -2 3.80 -6.60 4.20 -9.80 1.60 -13.20 11.20 -26.40 23 -32 9.20 -4.40 35 -4.20 50.40 0.40 14.20 4.20 32.60 16 41.80 26.80 7.60 9 12.80 22.20 10.80 28.40 -0.60 2 -1.60 5.80 -2 8.20 -0.60 2.40 -1.80 5 -3 5.80 -1 0.60 -2.20 3 -2.60 5 -0.40 2.20 -3.80 8.80 -7.40 14.60 -3.80 6 -7 12 -7.20 13.60 -0.20 1.40 -1.80 4.20 -3.60 6 -1.80 1.60 -3.40 4 -3.40 5 -0.20 1 -0.40 2.60 -0.60 3.60 0 1 -2.80 6.20 -6.20 11.40 -3.20 5.20 -5.60 9.60 -5 9.60 0.60 0.20 -2 4.40 -5.60 9.40 -3.60 5 -6.80 10.60 -7.20 12.20 -0.20 1.60 -2 5.40 -4 8.40 -1.80 3 -3.80 7.40 -4.20 9.60 -0.60 2.40 -2.60 6.20 -4.60 8.40 -4.20 4.60 -9 12.80 -9.60 16.60 -0.20 1.20 -2.80 5.60 -5.80 9.40 -3 3.80 -5.60 8.20 -5.80 9.80 -0.20 1.60 -1.80 5.20 -3.80 8 -1.80 2.80 -3.60 6.40 -3.80 7.80 -0.40 1.40 -1.40 3.20 -2.40 4 -1 0.60 -2.20 2.60 -2.40 4.40 -0.20 1.80 -1.80 4.60 -3.60 6.40 -1.80 1.60 -3.20 4 -3.20 5 0 3.80 -0.60 5 -8.20 15.60 -4.20 5.80 -7.20 11.60 -6.60 12.40 0.60 1 0.20 1.80 -0.80 1.80 -1.60 0 -4.80 7.40 -5.20 12.60 -0.20 1 -1.80 2.80 -3.60 4.20 -2 1.40 -3 3 -2.60 3.60 0.60 0.60 -0.20 2.20 -2 3.60 -1.60 1.40 -3 3.40 -3 4.40 0 1 -1.80 4.20 -4 7 -2.20 2.80 -3.40 5.80 -2.80 6.80 0.60 1 0.20 1.80 -0.60 1.80 -1.40 0 -6.20 9.20 -7.40 14 -0.20 0.60 -3.20 5.60 -7 11.40 -3.60 5.60 -6.60 10.80 -6.40 11.40 0.20 0.80 -0.60 2.40 -1.80 3.80 -1 1.20 -3.60 4.40 -5.60 7 -4 5.40 -14.40 7 -28.40 4.40z"/>
  <path d="M2860 1398.80 c-1.60 -0.60 -10.20 -3.20 -19 -6 -8.80 -2.80 -19.20 -6.20 -23 -7.80 -3.80 -1.40 -14.60 -5.60 -24 -9.20 -22 -8.40 -58 -27 -77.60 -40.20 -24 -15.80 -49.80 -43.20 -59.20 -62.40 -16.40 -33.20 -17 -62.60 -2 -94.60 11.60 -24.60 34.60 -44.40 60.40 -51.80 16.20 -4.80 41.20 -4 57.60 1.80 7.60 2.60 15.40 5.40 17.40 6.20 2.20 1 3.40 0.80 3.40 -0.60 0 -1.40 2.20 -5.80 5 -9.80 26.40 -38.80 74.60 -55.60 115.60 -40.40 30 11.20 55.20 38.20 64.60 69 5.60 18 5 54.80 -1 76 -8.80 31 -19.40 55.80 -36.40 84.40 -8.60 14.80 -14.80 24 -33.80 51.40 -21.40 30.80 -32.80 38.80 -48 34z"/>
  <path d="M1276 1378 c-6 -2.20 -13.60 -6.80 -17 -10 -5.60 -5.60 -6 -7.20 -5.80 -19.60 0.20 -7.40 2.20 -28.60 4.60 -47.40 2.40 -18.60 5.60 -43.80 7.20 -56 4 -31.40 4.80 -38 7.20 -56 2.40 -17.80 2.60 -20 5 -40 1.60 -14.80 2 -17.40 2.60 -19 0.20 -0.60 0.80 -5.60 1.20 -11.40 0.60 -5.60 1.80 -16 2.80 -23 1.20 -7 2.60 -17 3.20 -22.60 3.40 -25.80 25 -35 59.20 -25.20 34.60 9.80 44.80 25 36.80 54.20 -0.80 2.80 -1.40 6.60 -1.40 8.60 0.20 1.80 -0.80 3.40 -2 3.40 -1.20 0 -1.60 1.80 -1 4 0.60 2.20 0.20 4.60 -1 5.20 -1 0.60 -1.40 2.60 -0.60 4.40 0.60 1.60 0.20 3.60 -0.80 4.20 -1.20 0.80 -2.40 4.40 -2.80 8.20 -0.40 3.80 -1.40 8.40 -2 10 -0.60 1.60 -1.80 6.60 -2.40 11 -1.80 11.20 -2 13 -4.60 22 -1.20 4.40 -2.80 11 -3.40 14.60 -1.80 11 -2 11.40 -3.40 12.40 -0.60 0.60 -1.80 4.60 -2.20 9 -0.40 4.40 -1.20 9.40 -1.80 11 -4 12.20 -17.80 73.40 -18.60 82 0 1.80 -0.80 4.20 -1.60 5.40 -1 1.40 -1.80 5.60 -2.20 9.20 -0.40 3.80 -1.20 7.80 -2 9.20 -0.80 1.20 -0.80 3.20 -0.20 4.20 0.60 1.20 0.40 2 -0.40 2 -1.60 0 -7.40 21 -7.60 27 -0.60 12 -23.60 16.60 -45 9z"/>
 </g>
 <g fill="#e9a75b">
  <path d="M1530.80 3129.20 c-34.40 -5 -65.60 -17.80 -87.20 -35.60 -44.20 -36.80 -63.40 -62.40 -75.80 -101.20 -4 -12.80 -5.20 -14.40 -8.80 -13.60 -39.80 10 -85 3.60 -127 -18 -18 -9 -25.40 -14.60 -46 -33.40 -37.20 -34.20 -47.60 -50.20 -62 -94.60 -8.80 -27.40 -10.40 -61 -4.20 -95.20 2.40 -12.80 5.20 -25.80 6.20 -28.60 1.20 -3 2 -6.40 2 -7.60 0 -1.40 -7.40 -6.40 -16.20 -11.40 -17.60 -9.60 -59.80 -47 -72.40 -64 -10 -13.80 -22.80 -36 -26.40 -46 -4.40 -12.40 -10.40 -40.40 -12 -56 -2 -20.20 3.60 -57.20 12.80 -85 4.40 -12.80 8.60 -24 9.40 -24.80 0.60 -0.60 0.80 0.60 0.20 2.80 -2.40 7.80 -5.40 35.60 -5.40 47.60 0 14.20 7.80 53.60 13.60 68.60 13.80 36.20 61.20 87.20 103 110.80 9.80 5.40 11.60 7.20 10.60 10.80 -3.60 12.40 -7 27.80 -9.20 41.80 -1.80 10.40 -3.40 15.40 -5.20 15.40 -2.20 0 -2.80 3.60 -2.80 15 0 11.40 0.60 15 2.80 15 1.80 0 3.20 4 4 12.40 1.80 16 11.40 46 21.40 67 6.40 13.60 11.60 20.20 30 39.60 29 30 42.60 40.60 68 52.80 30.20 14.60 48.80 19 80.80 19.20 14.40 0 30.60 -0.80 36 -1.60 l10 -1.80 4.80 14.80 c8.60 27.20 19.20 44.60 41.20 67.40 22.80 23.80 44.80 42 59.80 49.60 14.40 7.20 43.40 16 61.80 18.40 48.80 6.80 96.80 -2.80 137.80 -27 23.80 -14.20 55.60 -46 69.80 -70.20 6 -10 11 -18 11.40 -17.60 0.80 0.80 -13.20 36 -19 47.80 -29.40 58.40 -81.60 100.40 -140.60 113.40 -23.40 5 -54.40 6.20 -77.20 3z"/>
  <path d="M2482 3070.80 c-23.60 -6.20 -35.60 -14 -60 -38.60 -34.60 -34.80 -45.40 -58.80 -43.60 -97.20 1 -19.40 10 -53.40 11.20 -42.40 0.40 3 1.80 5.40 3.60 5.40 1.60 0 2.80 2 2.80 5.20 0 8.60 6 28.80 12 40.60 6.40 12.60 35.20 46 49.40 57 23.20 18 54.80 27.20 80.80 23.60 8.20 -1.20 19.60 -3.80 25 -5.60 12.60 -4.20 45.80 -20.80 62.60 -31.40 39 -24.40 85.60 -67.20 109 -100 7.60 -10.80 14.20 -19.20 15 -19 30.40 16 48.80 21 72.20 19 25.80 -2.20 65.20 -16 103.20 -36.20 52.20 -27.80 100.20 -76.60 126.80 -128.60 4.40 -8.60 8 -14.80 8 -14 0 4 -19.40 50.40 -27.40 65.20 -29.40 55 -79.60 103.60 -136 132 -69.20 34.60 -112 39.40 -154.20 17.20 l-12.40 -6.60 -12.60 18.40 c-14.60 21.60 -51 58.60 -76.40 78.20 -33.20 25.40 -81.20 51.60 -106 58 -14.80 3.80 -38.40 3.60 -53 -0.20z"/>
  <path d="M2396 2811.80 c-7.20 -1 -42.60 -5.40 -79 -9.80 -118.60 -14.40 -121.80 -15 -145.60 -27.40 -19 -10 -34.80 -27.60 -47.80 -53.20 -5.60 -11.20 -32.60 -66.20 -59.80 -122.40 -56.20 -115 -56.60 -115.80 -74 -114.60 l-10 0.60 1.40 -15 c1.40 -16.60 3.80 -22.60 11.80 -30 4.40 -4 7.40 -5 16.20 -5 8.80 0 11.60 1 15.80 5 2.60 2.80 31 58.60 63 124 32 65.40 61.40 123.80 65.40 129.60 4 5.80 11.40 14.20 16.40 18.60 10.60 9 31.60 20.40 43.20 23.60 8.80 2.20 45 8 59 9.20 5 0.60 16.20 1.80 25 3 8.80 1 46.20 5.60 83 10.20 58.40 7.20 67.60 8.60 71.60 12.40 4.80 4.40 5.60 11.20 2.40 17.40 -1.20 2.20 -8.40 8.80 -16 15 -15.20 12 -16 12.20 -42 8.80z"/>
  <path d="M1782 2735 c-19.20 -2.60 -35.20 -4.80 -35.40 -4.80 -0.40 -0.20 -2.80 -4.80 -5.80 -10.60 -6.20 -12.40 -5.80 -23.20 1.60 -31 8.40 -9 8.80 -9 61 -2.60 49.20 6.20 56.40 6.40 77.60 1.60 24.80 -5.40 50 -22 64 -42.40 4.20 -6.20 8 -11 8.40 -10.60 1.20 1.20 -14.80 40.80 -20.40 50.60 -8.40 14.60 -30 34.80 -45 42.20 -27.80 13.80 -47.20 15.20 -106 7.60z"/>
  <path d="M3084.80 2632 c0.40 -2.80 2 -10.80 3.40 -18 1.80 -9.80 4.20 -14.80 9 -20 3.60 -3.80 8.80 -10.60 11.60 -14.80 6.60 -9.80 6.60 -9 -0.60 10.60 -6.60 17.60 -16 37 -21.20 43.20 -3.20 4 -3.20 4 -2.20 -1z"/>
  <path d="M1105 2290.40 c-0.60 -1.80 -1.80 -14.60 -2.40 -28.40 -1.20 -26.40 1.60 -49.20 8.80 -72.80 4.20 -13.40 8.60 -17.20 8.60 -7.40 0 4.20 -1 6.20 -3 6.20 -2.40 0 -3 2.60 -3 11 0 8.40 0.60 11 3 11 2.20 0 3 2.20 3 7.80 0 9.80 5.20 37.40 9.20 48.60 2.80 8 2.80 8.80 -0.60 11.20 -2 1.40 -7.80 5.60 -13 9.40 -8 6 -9.40 6.40 -10.60 3.40z"/>
  <path d="M1424.60 2193.40 l-4.20 -2.40 4.80 -3.60 4.80 -3.60 0 6.20 c0 3.20 -0.20 6 -0.40 6 -0.40 -0.20 -2.60 -1.20 -5 -2.60z"/>
  <path d="M1209.40 2001.60 c-0.60 -11.40 -2.60 -26 -4.40 -32.60 -4.40 -16.80 -20.80 -48.80 -35.60 -69.40 -10.80 -15.20 -14 -18.20 -24.40 -23.40 -16 -7.60 -25.20 -8.80 -40 -4.80 -16.20 4.20 -44.80 4.20 -60 -0.20 -28.40 -8.40 -53.80 -28.40 -66.60 -52.80 -5.80 -11 -7.20 -12.40 -11 -11.20 -17.80 5.80 -41.80 6.40 -60.20 1.60 -22.20 -5.80 -38.40 -15.80 -59.60 -36.80 -22 -22.20 -33.40 -38.40 -40 -57.60 -3.80 -11.20 -4.60 -17.20 -4.40 -37.40 0 -20.40 0.80 -26.20 5.20 -39 4.40 -12.40 5.20 -13.80 5.40 -8.40 0.20 3.80 1.20 6.40 2.80 6.40 1.60 0 3.40 4.80 4.80 12.60 5 28.20 15.60 46.20 45.60 76.40 19.40 19.60 40.40 31.20 65.80 36.40 15.60 3 28.60 2.40 51.60 -2.60 4.80 -1 5.80 -0.20 10.40 8.80 11.20 22.20 37 43.80 62.80 52.80 16.40 5.60 51.20 6.40 67.40 1.40 18.20 -5.60 41.60 1.80 54 17.20 12.20 15.20 23.60 33.60 33.20 54 18 37.60 20.40 78.80 6.40 112 -3.80 9.40 -7.20 17 -7.40 17 -0.40 0 -1.20 -9.20 -1.80 -20.40z"/>
  <path d="M2815.20 1750.60 c1.60 -10.60 8.40 -28 15 -37.60 8 -12 26.60 -28.80 46 -41.60 31.80 -21 55 -28.80 78.80 -26.40 17.40 1.80 29 2.60 81 6 31.20 2 51 3.40 57.60 4 33.40 3 50.60 3 66.40 0.20 32.20 -5.80 62.20 -25.20 80.20 -51.80 9 -13.60 8.80 -11.40 -1.80 15.60 -13.60 34.80 -33.80 58.80 -61.60 73.40 -29 15.40 -41.20 16 -146.80 8.60 -114.60 -8.20 -107.60 -7.80 -121.40 -4.40 -25 6.60 -70 34 -86.60 53 l-7.80 8.80 1 -7.80z"/>
  <path d="M2232 1645.60 c0 -7.40 13.80 -119.60 16.20 -131.60 1.20 -6 5.80 -20.40 10.20 -32 4.20 -11.60 7.20 -18.80 6.80 -16 -0.60 2.80 -5.60 42.80 -11.20 89 -5.60 46 -11.20 85.40 -12.20 87.40 -1 2 -3.60 4.40 -5.80 5.60 -3.40 1.80 -4 1.60 -4 -2.40z"/>
  <path d="M2369 1365.60 c-2.80 -20.40 -17.80 -55.60 -23.60 -55.60 -6.60 0 -32.60 -14.80 -42.80 -24.40 -11.40 -11 -30.20 -37 -39.20 -54.60 -10.60 -21 -14.60 -44.40 -11.60 -66.40 1.80 -12.20 14.40 -53.40 17 -56.20 0.60 -0.40 0.40 6 -0.20 14.20 -1.20 17 2.60 38.40 10.20 54.40 8 17.60 27.20 45.40 39.20 57.20 10.80 10.40 40 27.80 47 27.80 2.20 0 11.20 17.40 16.80 32.60 4.60 12 6.40 31.20 4.20 45 -2 12.60 -3 16.20 -8.20 30.40 -3.60 9.40 -7.20 7.40 -8.80 -4.40z"/>
  <path d="M1128.80 1307.80 c0.60 -3.80 2 -15.80 3.20 -27 1 -11 2.20 -21.40 2.80 -23 0.60 -1.60 2.80 -19.80 5.20 -40.80 6 -56 13.40 -107.80 18 -126.60 4 -17 16 -53 17.20 -51.80 0.40 0.20 -0.60 6 -2.20 12.60 -1.60 6.60 -3.80 19.20 -4.80 28 -4.80 37.20 -8 62.60 -9.20 73.20 -1 8.20 -2.20 11.60 -4.60 12.20 -3 0.80 -2.80 1 0.40 1.20 2.40 0.20 3.20 1.20 2.40 3.40 -0.60 1.80 -1.20 4.80 -1.20 7 0 2 -1.40 3.80 -3 3.80 -1.60 0 -3 1 -3 2 0 1.20 1.40 2 3 2 2 0 2.60 1.60 2 5.60 -5 33.40 -5.80 36.40 -8.20 36.40 -1.60 0 -2.80 1 -2.80 2 0 1.20 1.40 2 3.20 2 2.40 0 2.80 1.40 2 5.60 -0.60 3 -1.60 10.20 -2.20 16 -1 7 -2.20 10.40 -4.20 10.40 -1.60 0 -2.80 1 -2.80 2 0 1.20 1.40 2 3.20 2 2 0 2.80 1.20 2 3.60 -0.40 1.80 -1.40 8.80 -2.20 15.20 -1.40 11.20 -7.60 24.80 -13.20 28.40 -1.80 1 -2 -0.40 -1 -5.40z"/>
  <path d="M2280.60 1056.20 c-15.80 -23.60 -21.60 -43.80 -20 -71.20 1 -18 10.80 -55 11.20 -42.40 0.20 3.40 1.40 5.40 3.20 5.40 1.80 0 3 2 3 5.20 0 8.60 6 28.80 12 40.60 3 6.20 10.60 16.80 16.80 23.80 6.20 6.80 11.20 13.40 11.20 14.60 0 1 -7 9 -15.60 17.60 l-15.80 15.80 -6 -9.40z"/>
 </g>
</svg>